<?xml version="1.0" encoding="UTF-8"?>
<svg id="Capa_1" data-name="Capa 1" xmlns="http://www.w3.org/2000/svg" viewBox="0 0 1500 424.86">
  <defs>
    <style>
      .cls-1 {
        fill: #fff8fc;
      }

      .cls-2 {
        fill: #005abb;
      }

      .cls-3 {
        fill: #15152e;
      }
    </style>
  </defs>
  <path class="cls-1" d="M1327.82,110.33c-8.47-2.59-19.36-3.17-32.93-2.19-13.57.98-24.35,3.17-32.93,6.75-3.76,1.57-7.21,3.47-10.31,5.65-3.1-1.88-6.55-3.43-10.31-4.6-8.59-2.67-19.36-3.65-32.93-3.16-13.57.49-24.35,2.25-32.93,5.45-4.9,1.83-9.3,4.23-13.05,7.1-18.68-10.59-41.37-13.29-61.48-13.17-25.53.14-53.94,6.46-75.43,23.14-.44.34-.9.69-1.35,1.05-18.76-21.12-51.03-26.33-76.31-27.1-22.16-.67-45.4,2.96-65.49,14.86-2.23,1.32-4.39,2.81-6.43,4.33-18.72-18.03-48.02-25.02-72.49-25.58-22.75-.53-45.53,2.74-65.49,15.26-.58.37-1.17.76-1.74,1.15-4.55-5.34-10.54-9.8-17.66-12.93-8.59-3.78-19.36-5.97-32.93-6.63-13.57-.66-24.35.49-32.93,3.57-3.76,1.35-7.21,3.13-10.31,5.29-3.1-2.42-6.55-4.51-10.31-6.19-8.59-3.85-19.36-6.04-32.93-6.59-10.98-.45-20.13.32-27.77,2.36v-20.94c.62-18.02-12.12-34.31-27.46-41.7-8.43-4.06-19.36-6.28-32.93-6.83-13.57-.55-24.45,1.08-32.93,4.24-16.48,6.14-27,23.43-27.45,40.65v16.04c-19.56,2.46-36.04,11.9-51.45,23.67-7.36-17.73-19.45-33.93-34.05-46.11-22.84-19.05-53.41-26.8-82.78-25.33-35.6,1.79-70.28,18.49-94.31,44.85-24.16,26.51-35.75,62.9-35.77,98.25-.02,35.94,10.78,73.39,36.28,99.71,25.18,26,59.14,37.94,93.8,39.83,35,1.91,73-10.96,96.51-39.31,3.35,4.8,7.19,9.28,11.24,13.41,17.45,17.81,43.92,27.57,68.58,27.48,11.66-.04,25.65-2.95,36.3-8.03,9.21,4.74,18.53,7.49,26.11,6.8,12.52-1.14,25-4.78,35.92-13.22.41,15.31,2.35,31.36,8.42,45.04,12.29,27.69,52.73,34.74,80.76,32.95,27.16-1.74,54.22-12.43,73.04-32.21,13.23-13.91,23.11-32.46,25.68-51.84,17.17,6.46,34.62,8.52,52.42,8.43,22.8-.12,47.61-7.79,66.59-21.44,1.25-.9,2.47-1.83,3.66-2.79,4.42,2.79,9.54,5.43,15.34,7.85,18.99,7.9,38.71,10.69,58.82,10.78,22.63.09,47.35-6.58,66.59-19.48,4.3-2.88,8.24-6.09,11.77-9.54,1.22,1.03,2.47,2.03,3.75,2.99,23.67,17.8,53.54,23.38,81.33,23.33,20.02-.04,42.88-2.73,61.14-13.84-.05.7-.07,1.42-.07,2.13.03,13.35,2.23,28.67,8.46,40.32,13.7,25.63,54.18,34.87,80.76,36.5,25.23,1.55,52.16-1.56,73.04-18.43,17.98-14.52,26.89-39.26,26.81-61.96v-144.98c.74-16.81-12.46-30.49-27.45-35.07Z"/>
  <path class="cls-3" d="M1320.3,116.42c-8.47-2.63-19.36-3.29-32.93-2.4-13.57.89-24.35,3.01-32.93,6.52-3.76,1.54-7.21,3.42-10.31,5.58-3.1-1.89-6.55-3.45-10.31-4.64-8.59-2.7-19.36-3.73-32.93-3.3-13.57.43-24.35,2.15-32.93,5.31-4.9,1.81-9.3,4.19-13.05,7.05-18.67-10.63-41.36-13.4-61.48-13.33-25.52.09-53.95,6.38-75.43,23.07-.44.34-.9.69-1.35,1.05-18.75-21.15-51.02-26.38-76.31-27.14-22.17-.66-45.41,3.02-65.49,14.98-2.23,1.33-4.39,2.82-6.43,4.36-18.71-18.05-48.02-25.01-72.49-25.52-22.77-.48-45.55,2.87-65.49,15.48-.58.37-1.17.77-1.74,1.16-4.55-5.34-10.54-9.8-17.66-12.92-8.59-3.76-19.36-5.93-32.93-6.55-13.57-.62-24.35.57-32.93,3.68-3.76,1.36-7.21,3.16-10.31,5.34-3.1-2.41-6.55-4.5-10.31-6.18-8.59-3.84-19.36-6-32.93-6.51-10.98-.42-20.13.38-27.77,2.45v-20.99c.63-18.02-12.09-34.33-27.46-41.69-8.43-4.04-19.36-6.22-32.93-6.72s-24.45,1.17-32.93,4.36c-16.48,6.2-27,23.53-27.45,40.78v16.05c-19.57,2.52-36.04,11.99-51.45,23.78-7.36-17.71-19.45-33.88-34.05-46.02-22.85-19-53.43-26.64-82.78-25.11-35.56,1.86-70.24,18.52-94.31,44.79-24.1,26.3-35.75,62.44-35.77,97.61-.02,35.84,10.88,73.07,36.28,99.31,25.18,26.02,59.11,38.15,93.8,40.2,34.96,2.07,72.99-10.63,96.51-38.95,3.35,4.8,7.19,9.29,11.24,13.42,17.45,17.83,43.91,27.64,68.58,27.59,11.66-.03,25.65-2.94,36.3-8.02,9.21,4.75,18.53,7.51,26.11,6.81,12.52-1.15,25-4.8,35.92-13.26.41,15.34,2.35,31.42,8.42,45.13,12.27,27.72,52.71,34.81,80.76,32.98,27.2-1.77,54.25-12.57,73.04-32.43,13.24-13.99,23.11-32.62,25.68-52.07,17.18,6.44,34.62,8.46,52.42,8.33,22.83-.17,47.64-7.96,66.59-21.69,1.25-.91,2.47-1.85,3.66-2.81,4.42,2.79,9.54,5.43,15.34,7.83,19,7.88,38.71,10.62,58.82,10.65,22.65.03,47.37-6.74,66.59-19.7,4.3-2.9,8.24-6.12,11.77-9.58,1.22,1.03,2.47,2.03,3.75,2.99,23.67,17.78,53.56,23.29,81.33,23.18,20.03-.07,42.88-2.81,61.14-13.92-.05.7-.07,1.41-.07,2.13.03,13.33,2.23,28.63,8.46,40.25,13.71,25.58,54.22,34.67,80.76,36.25,25.22,1.5,52.14-1.62,73.04-18.39,17.93-14.39,26.89-38.94,26.81-61.54v-144.03c.73-16.79-12.53-30.41-27.45-35.04Z"/>
  <path class="cls-2" d="M546.93,74.2c0-10.38-6.22-19.45-16.65-24.25-6.61-3.04-15.39-4.76-26.84-5.16-11.45-.4-20.23.7-26.84,3.33-10.42,4.14-16.65,12.99-16.65,23.55v33.48c-.79-.04-1.6-.07-2.41-.08-21.83-.24-41.1,8.78-56.79,21.97-5.23,4.4-10.88,11.21-15.94,19.56-10.74-54.41-54.27-90.79-110.03-88.07-66.64,3.26-112.89,59.44-113.18,124.27-.14,31.82,8.65,64.12,31.14,87.51,22.12,23,51.57,31.65,82.04,33.6,40.46,2.59,79.88-18.07,98.53-55.26,3.52,12.01,11.48,25.37,20.53,34.02,15.06,14.38,36.68,23.03,57.26,22.82,11.07-.11,25.16-3.43,34.99-8.92.67-.37,1.35-.75,2.02-1.14,7.25,4.75,16.7,9.41,25.4,9.13,13.07-.42,25.07-7.38,34.5-16.26,2.66-2.5,7.15-7.13,10.86-12.92,3.05,4.5,6.72,8.55,10.97,12.05,1,.82,2.03,1.61,3.09,2.37-4.14,4.26-6.66,10.28-6.64,17.04.05,13.41,1.52,28.02,6.88,39.82,9.37,20.64,45,24.66,65.44,23.76,22.33-.98,45.93-9.97,61.32-26.23,13.52-14.29,22.15-34.64,21.63-54.77,0-5.42,0-8.13,0-13.55,4.34,3.48,9.92,6.82,16.7,9.85,15.76,7.05,34.13,10.97,51.48,10.12,19.54-.96,40.67-5.92,56.67-17.66,4.99-3.66,9.4-7.74,13-12.19,4.56,5.58,12.34,10.83,23.27,15.45,15.89,6.72,34.16,10.43,51.48,9.77,19.37-.74,40.44-5.05,56.67-16.19,9.21-6.32,16.23-14.07,20.43-22.8,4.26,6.29,9.67,11.9,15.97,16.74,19.93,15.34,46.39,19.35,70.39,19.86,19.64.42,54.7-3.71,64.43-24.63.67-1.44,1.25-3.13,1.8-4.85,3.65,6.41,8.78,12.12,15.29,16.85,1,.73,2.03,1.43,3.09,2.11-4.14,3.45-6.61,8.43-6.64,14.11-.05,10.99,1.86,24.64,6.88,33.93,10.26,19.01,45.8,25.52,65.44,26.4,20.55.93,44.49-1.13,61.32-15.93,13.96-12.28,22.19-31.09,21.63-49.81v-142.01c0-9.41-6.22-16.96-16.65-20.15-6.61-2.02-15.39-2.61-26.84-1.93-11.45.68-20.23,2.31-26.84,5.01-9.22,3.77-15.16,10.28-16.4,17.89-1.25-7.53-7.18-13.57-16.4-16.51-6.61-2.11-15.39-2.92-26.84-2.59-11.45.33-20.23,1.66-26.84,4.1-8.37,3.09-14.03,8.48-15.93,14.96-2.6-2.55-5.57-4.89-8.83-7-16.08-10.41-37.68-13.59-55.87-13.15-22.73.55-45.37,5.39-64.39,19.58-15.88,11.85-27.01,31.35-29.14,51.38-2.11-1.86-4.41-3.62-6.93-5.26-1.74-1.14-3.54-2.2-5.38-3.2,2.56-2,5.35-4.55,8.34-7.8,8.31-9.04,12.62-17.07,12.53-23.63-.41-28.41-48.53-32.6-68.12-33.83-18.89-1.18-39.67,3.01-55.96,12.72-9.09,5.42-16.07,12.78-20.59,21.1.16-1,.27-2,.25-2.95-.38-29.3-47.46-34.93-68.12-36.53-18.94-1.47-39.86,2.98-55.96,13.14-7.72,4.87-13.92,11.3-18.38,18.5v-6.23c0-9.73-6.22-18.21-16.65-22.75-6.61-2.88-15.39-4.53-26.84-5.01-11.45-.48-20.23.45-26.84,2.86-9.22,3.36-15.16,10.27-16.4,18.81-1.25-8.61-7.18-15.94-16.4-20.04-6.61-2.94-15.39-4.58-26.84-4.98s-20.23.64-26.84,3.19c-10.43,4.02-16.65,12.66-16.65,23.04-.39-21.18-.79-42.35-1.18-63.53ZM1155.12,214.2c.79-.75,1.54-1.52,2.28-2.3v3.2c-.74-.34-1.49-.64-2.28-.9Z"/>
  <g>
    <path class="cls-1" d="M178.5,180.99c.01-56.62,38.4-102.74,96.28-105.63,61.05-3.04,96.28,45.7,96.28,103.07,0,58.56-34.05,107.24-96.28,105.75-59.73-1.44-96.29-44.84-96.28-103.19ZM312.28,179.37c0-22.55-5.48-63.84-37.5-62.55-32,1.29-37.03,38.75-37.5,63.51-.47,24.27,5.24,62.81,37.5,63,32.55.18,37.51-41,37.5-63.95Z"/>
    <path class="cls-1" d="M385.05,212.69c1.53-43.24,22.12-90.92,72.49-90.5,11.72.1,19.31,4.86,19.31,4.86v-56.49c0-4.91,6.72-9.4,26.59-8.77,19.87.63,26.59,5.48,26.59,10.34v164.61c0,9.41,4.76,13.02,10.92,12.96.34,0,.5,0,.84,0,4.48-.04,6.8,3.1,6.44,5.99-1.69,13.41-20.47,28.04-34.7,29.01-9.26.63-25.19-13.13-25.19-13.13-10.05,9.33-23.82,13.57-37.22,13.86-39.65.84-67.41-34.38-66.05-72.72ZM476.85,166.65c0-5.22-4.36-9.71-10.08-9.61-23.59.44-26.54,34.12-27.43,51.33-.72,13.95,3.87,41.09,22.39,41.25,7.73.07,15.11-5.91,15.11-13.58v-69.39Z"/>
    <path class="cls-1" d="M588.52,337.02c-4.37-7.2-5.32-24.32-5.32-32.09,0-2.99,2.45-5.56,5.32-5.23,12.9,1.48,27.17,9.96,41.98,10.83,12.51.74,21.85-9.67,20.99-22.65v-15.47c-10.36,7.16-23.16,9.81-35.54,10.23-27.09.92-51.26-17.11-50.94-45.79v-100.17c0-4.81,6.72-9.16,26.59-8.58s26.59,5.24,26.59,9.97v87.78c0,9.16,6.16,15.9,14.83,15.82,9.24-.09,18.47-8.65,18.47-18.28,0-28.11,0-56.23,0-84.34,0-4.67,6.72-8.83,26.59-8.13s26.59,5.23,26.59,9.8c0,49.3,0,98.59,0,147.89.99,37.56-33,62.1-66.05,62.7-14.69.27-42.27-1.38-50.1-14.28Z"/>
    <path class="cls-1" d="M727.06,254.53c-.74-6.68,16.35-26.18,22.95-26.14,9.06.05,26.18,16.38,41.98,16.25,6.41-.05,11.61-4.56,10.92-9.16-4.05-26.83-73.42-11.38-72.77-57.8.47-33.28,37.55-46.54,65.77-45.23,13.26.62,51.05,7.36,51.22,19.55.1,7.3-14.91,24.54-22.11,24.55-8.43.01-21.36-12.41-33.59-13.23-5.61-.38-10.03,4.25-9.52,8.6,1.47,12.34,25.27,15.84,36.38,20.05,17.88,6.78,36.79,17.33,36.38,39.05-.6,32.66-38.2,47.05-64.93,46.9-18.21-.1-61.23-10.13-62.69-23.4Z"/>
    <path class="cls-1" d="M871.47,252.15c-.72-6.19,16.33-24.57,22.95-24.52,9.35.08,26.32,15.44,41.98,15.35,6.41-.04,11.62-4.36,10.92-8.61-4.21-25.35-72.93-9.91-72.77-54.34.12-32.93,39.83-44.23,65.77-42.8,13.41.74,48.72,3.63,51.22,18,.83,4.78-16.67,24.3-22.11,23.44-10.34-1.62-21.46-11.62-33.59-12.31-5.63-.32-10.1,4.21-9.52,8.14,3.95,26.46,73.66,10.45,72.77,55.78-.63,31.99-39.33,44.34-64.93,44.05-17.97-.2-61.25-9.78-62.69-22.19Z"/>
    <path class="cls-1" d="M1015.89,208.72c-.03-42.83,37.97-70.2,77.53-69.16,22.64.6,61.35,5.71,61.29,36.94-.06,36.42-50.89,47.84-78.92,49.09,8.12,10.64,22.08,14.3,34.7,14.04,14.24-.29,26.77-10.47,37.78-12.5,1.35-.25,3.36,1.01,3.36,3.53,0,4.03-1.57,20.52-5.32,26.66-8,13.12-33.06,14.7-48.7,15.16-37.8,1.12-81.7-19.85-81.72-63.77ZM1070.19,203.01c15.16-3.45,32.39-11.78,32.75-29.08.1-5.16-4.15-8.24-8.96-8.03-16.38.73-23.92,22.42-23.79,37.1Z"/>
    <path class="cls-1" d="M1197.81,319.17c-4.26-6.26-5.32-21.01-5.32-27.62,0-2.54,2.39-4.62,5.32-4.2,13.02,1.87,27.73,10.42,41.98,11.79,11.83,1.14,20.99-4.08,20.99-18.73v-13.86c-10.84,5.94-23.31,7.57-35.54,7.38-23.39-.38-51.15-13.26-50.94-40.4v-84.23c0-4.05,6.72-7.91,26.59-8.4s26.59,3.11,26.59,7.23v76.44c0,7.98,6.16,13.95,14.83,14.05,9.24.1,18.47-7.37,18.47-16v-75.58c0-4.18,6.72-8.33,26.59-9.33,19.87-1,26.59,2.61,26.59,6.94v140.17c-.47,37.24-33.7,53.88-66.05,51.02-14.99-1.32-41.81-4.47-50.1-16.66Z"/>
  </g>
</svg>